squats_1_grf
version=1
nRows=15
nColumns=19
inDegrees=no
endheader
time	ground_force_right_vx	ground_force_right_vy	ground_force_right_vz	ground_force_right_px	ground_force_right_py	ground_force_right_pz	ground_force_right_mx	ground_force_right_my	ground_force_right_mz	ground_force_left_vx	ground_force_left_vy	ground_force_left_vz	ground_force_left_px	ground_force_left_py	ground_force_left_pz	ground_force_left_mx	ground_force_left_my	ground_force_left_mz
     25.90800000	      6.10506108	    377.27950110	     47.23975679	     -3.47283932	      0.00739697	      2.27800951	     -0.00290593	      0.99695182	      0.00451395	     -3.94900364	    348.69646366	    -39.93048128	     -3.44412758	      0.00803300	      2.66897582	      0.00446314	     -1.34330504	      0.00233262
     25.90900000	      6.05887116	    376.89879210	     47.22378855	     -3.47281686	      0.00739701	      2.27801527	     -0.00288134	      0.98851565	      0.00447575	     -4.11395743	    348.35411337	    -39.94532005	     -3.44411484	      0.00803309	      2.66900322	      0.00446125	     -1.34273731	      0.00233163
     25.91000000	      6.01025630	    376.52065010	     47.20916148	     -3.47279334	      0.00739704	      2.27802192	     -0.00285732	      0.98027471	      0.00443844	     -4.25939689	    348.00936882	    -39.96181780	     -3.44411430	      0.00803314	      2.66903233	      0.00446075	     -1.34258476	      0.00233137
     25.91100000	      5.95982105	    376.14635682	     47.19581066	     -3.47276869	      0.00739708	      2.27802953	     -0.00283394	      0.97225122	      0.00440211	     -4.38372339	    347.66093744	    -39.97969047	     -3.44412588	      0.00803316	      2.66906305	      0.00446156	     -1.34283041	      0.00233180
     25.91200000	      5.90820945	    375.77713528	     47.18366055	     -3.47274288	      0.00739712	      2.27803813	     -0.00281125	      0.96446972	      0.00436688	     -4.48548262	    347.30759294	    -39.99862659	     -3.44414937	      0.00803314	      2.66909527	      0.00446364	     -1.34345617	      0.00233288
     25.91300000	      5.85609437	    375.41413600	     47.17262485	     -3.47271586	      0.00739715	      2.27804777	     -0.00278936	      0.95695676	      0.00433286	     -4.56338342	    346.94818831	    -40.01828948	     -3.44418445	      0.00803308	      2.66912885	      0.00446692	     -1.34444284	      0.00233460
     25.91400000	      5.80416634	    375.05842371	     47.16260642	     -3.47268758	      0.00739719	      2.27805850	     -0.00276832	      0.94974058	      0.00430019	     -4.61631583	    346.58166773	    -40.03831994	     -3.44423071	      0.00803298	      2.66916364	      0.00447133	     -1.34577011	      0.00233690
     25.91500000	      5.75312201	    374.71096468	     47.15349745	     -3.47265797	      0.00739722	      2.27807032	     -0.00274824	      0.94285068	      0.00426899	     -4.64336780	    346.20707764	    -40.05833934	     -3.44428761	      0.00803286	      2.66919946	      0.00447680	     -1.34741663	      0.00233976
     25.91600000	      5.70365269	    374.37261495	     47.14517976	     -3.47262699	      0.00739725	      2.27808327	     -0.00272920	      0.93631738	      0.00423941	     -4.64384054	    345.82357674	    -40.07795311	     -3.44435452	      0.00803270	      2.66923613	      0.00448326	     -1.34936007	      0.00234313
     25.91700000	      5.65643283	    374.04410961	     47.13752529	     -3.47259456	      0.00739728	      2.27809736	     -0.00271128	      0.93017139	      0.00421158	     -4.61726217	    345.43044516	    -40.09675477	     -3.44443070	      0.00803251	      2.66927346	      0.00449062	     -1.35157713	      0.00234698
     25.91800000	      5.61210913	    373.72605337	     47.13039690	     -3.47256062	      0.00739731	      2.27811259	     -0.00269458	      0.92444325	      0.00418565	     -4.56339942	    345.02709270	    -40.11433035	     -3.44451532	      0.00803230	      2.66931125	      0.00449882	     -1.35404366	      0.00235127
     25.91900000	      5.57129010	    373.41891266	     47.12364932	     -3.47252509	      0.00739734	      2.27812896	     -0.00267919	      0.91916280	      0.00416174	     -4.48226717	    344.61306633	    -40.13026327	     -3.44460745	      0.00803206	      2.66934928	      0.00450776	     -1.35673476	      0.00235594
     25.92000000	      5.53453648	    373.12300928	     47.11713047	     -3.47248791	      0.00739737	      2.27814647	     -0.00266519	      0.91435870	      0.00413999	     -4.37413552	    344.18805690	    -40.14413957	     -3.44470610	      0.00803179	      2.66938734	      0.00451736	     -1.35962485	      0.00236096
     25.92100000	      5.50235277	    372.83851606	     47.11068287	     -3.47244900	      0.00739740	      2.27816512	     -0.00265265	      0.91005785	      0.00412052	     -4.23953434	    343.75190504	    -40.15555356	     -3.44481020	      0.00803151	      2.66942523	      0.00452754	     -1.36268787	      0.00236628
     25.92200000	      5.47517974	    372.56545437	     47.10414539	     -3.47240829	      0.00739743	      2.27818488	     -0.00264166	      0.90628487	      0.00410343	     -4.07925499	    343.30460631	    -40.16411360	     -3.44491860	      0.00803122	      2.66946273	      0.00453820	     -1.36589737	      0.00237185
